<mxfile host="app.diagrams.net" modified="2024-02-19T18:06:50.990Z" agent="Mozilla/5.0 (Macintosh; Intel Mac OS X 10_15_7) AppleWebKit/605.1.15 (KHTML, like Gecko) Version/17.3.1 Safari/605.1.15" version="23.1.5" etag="SXvl3Xa_W9QhmsiOU58e" type="github">
  <diagram name="Страница — 1" id="9uD3RDT2DggxoDtITE1y">
    <mxGraphModel>
      <root>
        <mxCell id="0" />
        <mxCell id="1" parent="0" />
      </root>
    </mxGraphModel>
  </diagram>
</mxfile>
